Griffith_Gothic-Condensed_Light.ufo
<glyph name="exclam" format="1">
  <advance width="200"/>
  <unicode hex="0021"/>
  <outline>
    <contour>
      <point x="136" y="720" type="line"/>
      <point x="116" y="187" type="line"/>
      <point x="85" y="187" type="line"/>
      <point x="65" y="720" type="line"/>
    </contour>
    <contour>
      <point x="142" y="35" type="curve" smooth="yes"/>
      <point x="142" y="10"/>
      <point x="125" y="-7"/>
      <point x="100" y="-7" type="curve" smooth="yes"/>
      <point x="76" y="-7"/>
      <point x="58" y="10"/>
      <point x="58" y="35" type="curve" smooth="yes"/>
      <point x="58" y="60"/>
      <point x="76" y="77"/>
      <point x="100" y="77" type="curve" smooth="yes"/>
      <point x="125" y="77"/>
      <point x="142" y="60"/>
    </contour>
  </outline>
</glyph>
<glyph name="numbersign" format="1">
  <advance width="481"/>
  <unicode hex="0023"/>
  <outline>
    <contour>
      <point x="460" y="464" type="line"/>
      <point x="365" y="464" type="line"/>
      <point x="337" y="257" type="line"/>
      <point x="433" y="257" type="line"/>
      <point x="433" y="206" type="line"/>
      <point x="330" y="206" type="line"/>
      <point x="303" y="0" type="line"/>
      <point x="264" y="0" type="line"/>
      <point x="291" y="206" type="line"/>
      <point x="150" y="206" type="line"/>
      <point x="123" y="0" type="line"/>
      <point x="83" y="0" type="line"/>
      <point x="111" y="206" type="line"/>
      <point x="22" y="206" type="line"/>
      <point x="22" y="257" type="line"/>
      <point x="118" y="257" type="line"/>
      <point x="145" y="464" type="line"/>
      <point x="49" y="464" type="line"/>
      <point x="49" y="516" type="line"/>
      <point x="152" y="516" type="line"/>
      <point x="179" y="720" type="line"/>
      <point x="219" y="720" type="line"/>
      <point x="191" y="516" type="line"/>
      <point x="332" y="516" type="line"/>
      <point x="359" y="720" type="line"/>
      <point x="399" y="720" type="line"/>
      <point x="372" y="516" type="line"/>
      <point x="460" y="516" type="line"/>
    </contour>
    <contour>
      <point x="326" y="465" type="line"/>
      <point x="184" y="465" type="line"/>
      <point x="157" y="257" type="line"/>
      <point x="298" y="257" type="line"/>
    </contour>
  </outline>
</glyph>
<glyph name="percent" format="1">
  <advance width="602"/>
  <unicode hex="0025"/>
  <outline>
    <contour>
      <point x="284" y="550" type="curve" smooth="yes"/>
      <point x="284" y="440"/>
      <point x="227" y="373"/>
      <point x="154" y="373" type="curve" smooth="yes"/>
      <point x="81" y="373"/>
      <point x="26" y="440"/>
      <point x="26" y="550" type="curve" smooth="yes"/>
      <point x="26" y="660"/>
      <point x="82" y="727"/>
      <point x="155" y="727" type="curve" smooth="yes"/>
      <point x="228" y="727"/>
      <point x="284" y="661"/>
    </contour>
    <contour>
      <point x="232" y="549" type="curve" smooth="yes"/>
      <point x="232" y="629"/>
      <point x="206" y="683"/>
      <point x="154" y="683" type="curve" smooth="yes"/>
      <point x="104" y="683"/>
      <point x="78" y="630"/>
      <point x="78" y="551" type="curve" smooth="yes"/>
      <point x="78" y="472"/>
      <point x="103" y="417"/>
      <point x="154" y="417" type="curve" smooth="yes"/>
      <point x="205" y="417"/>
      <point x="232" y="470"/>
    </contour>
    <contour>
      <point x="500" y="720" type="line"/>
      <point x="318" y="352" type="line"/>
      <point x="156" y="0" type="line"/>
      <point x="102" y="0" type="line"/>
      <point x="284" y="369" type="line"/>
      <point x="446" y="720" type="line"/>
    </contour>
    <contour>
      <point x="576" y="170" type="curve" smooth="yes"/>
      <point x="576" y="60"/>
      <point x="519" y="-7"/>
      <point x="446" y="-7" type="curve" smooth="yes"/>
      <point x="373" y="-7"/>
      <point x="318" y="60"/>
      <point x="318" y="170" type="curve" smooth="yes"/>
      <point x="318" y="280"/>
      <point x="375" y="347"/>
      <point x="448" y="347" type="curve" smooth="yes"/>
      <point x="521" y="347"/>
      <point x="576" y="281"/>
    </contour>
    <contour>
      <point x="524" y="169" type="curve" smooth="yes"/>
      <point x="524" y="249"/>
      <point x="498" y="303"/>
      <point x="447" y="303" type="curve" smooth="yes"/>
      <point x="397" y="303"/>
      <point x="370" y="250"/>
      <point x="370" y="171" type="curve" smooth="yes"/>
      <point x="370" y="92"/>
      <point x="396" y="37"/>
      <point x="447" y="37" type="curve" smooth="yes"/>
      <point x="497" y="37"/>
      <point x="524" y="90"/>
    </contour>
  </outline>
</glyph>
<glyph name="ampersand" format="1">
  <advance width="537"/>
  <unicode hex="0026"/>
  <outline>
    <contour>
      <point x="537" y="4" type="line"/>
      <point x="521" y="-3"/>
      <point x="508" y="-6"/>
      <point x="488" y="-6" type="curve" smooth="yes"/>
      <point x="440" y="-6"/>
      <point x="407" y="11"/>
      <point x="361" y="74" type="curve"/>
      <point x="316" y="21"/>
      <point x="265" y="-10"/>
      <point x="207" y="-10" type="curve" smooth="yes"/>
      <point x="99" y="-10"/>
      <point x="27" y="72"/>
      <point x="27" y="191" type="curve" smooth="yes"/>
      <point x="27" y="279"/>
      <point x="66" y="350"/>
      <point x="162" y="415" type="curve"/>
      <point x="132" y="475"/>
      <point x="112" y="531"/>
      <point x="112" y="590" type="curve" smooth="yes"/>
      <point x="112" y="669"/>
      <point x="161" y="732"/>
      <point x="239" y="732" type="curve" smooth="yes"/>
      <point x="312" y="732"/>
      <point x="347" y="674"/>
      <point x="347" y="603" type="curve" smooth="yes"/>
      <point x="347" y="516"/>
      <point x="302" y="461"/>
      <point x="227" y="408" type="curve"/>
      <point x="287" y="294"/>
      <point x="331" y="214"/>
      <point x="367" y="160" type="curve"/>
      <point x="400" y="220"/>
      <point x="429" y="299"/>
      <point x="452" y="388" type="curve"/>
      <point x="496" y="364" type="line"/>
      <point x="470" y="265"/>
      <point x="436" y="181"/>
      <point x="396" y="119" type="curve"/>
      <point x="440" y="54"/>
      <point x="462" y="40"/>
      <point x="494" y="40" type="curve" smooth="yes"/>
      <point x="514" y="40"/>
      <point x="522" y="43"/>
      <point x="537" y="49" type="curve"/>
    </contour>
    <contour>
      <point x="297" y="598" type="curve" smooth="yes"/>
      <point x="297" y="652"/>
      <point x="275" y="691"/>
      <point x="237" y="691" type="curve" smooth="yes"/>
      <point x="189" y="691"/>
      <point x="165" y="644"/>
      <point x="165" y="593" type="curve" smooth="yes"/>
      <point x="165" y="544"/>
      <point x="179" y="495"/>
      <point x="205" y="443" type="curve"/>
      <point x="271" y="490"/>
      <point x="297" y="538"/>
    </contour>
    <contour>
      <point x="333" y="112" type="curve"/>
      <point x="294" y="172"/>
      <point x="244" y="257"/>
      <point x="183" y="376" type="curve"/>
      <point x="111" y="323"/>
      <point x="86" y="268"/>
      <point x="86" y="198" type="curve" smooth="yes"/>
      <point x="86" y="113"/>
      <point x="134" y="37"/>
      <point x="212" y="37" type="curve" smooth="yes"/>
      <point x="258" y="37"/>
      <point x="298" y="64"/>
    </contour>
  </outline>
</glyph>
<glyph name="parenleft" format="1">
  <advance width="248"/>
  <unicode hex="0028"/>
  <outline>
    <contour>
      <point x="224" y="-95" type="curve"/>
      <point x="176" y="-95" type="line"/>
      <point x="108" y="1"/>
      <point x="45" y="135"/>
      <point x="45" y="320" type="curve" smooth="yes"/>
      <point x="45" y="505"/>
      <point x="108" y="639"/>
      <point x="176" y="735" type="curve"/>
      <point x="224" y="735" type="line"/>
      <point x="151" y="620"/>
      <point x="105" y="488"/>
      <point x="105" y="320" type="curve" smooth="yes"/>
      <point x="105" y="152"/>
      <point x="151" y="20"/>
    </contour>
  </outline>
</glyph>
<glyph name="parenright" format="1">
  <advance width="248"/>
  <unicode hex="0029"/>
  <outline>
    <contour>
      <point x="203" y="320" type="curve" smooth="yes"/>
      <point x="203" y="135"/>
      <point x="141" y="1"/>
      <point x="72" y="-95" type="curve"/>
      <point x="24" y="-95" type="line"/>
      <point x="98" y="20"/>
      <point x="144" y="152"/>
      <point x="144" y="320" type="curve" smooth="yes"/>
      <point x="144" y="488"/>
      <point x="98" y="620"/>
      <point x="24" y="735" type="curve"/>
      <point x="72" y="735" type="line"/>
      <point x="141" y="639"/>
      <point x="203" y="505"/>
    </contour>
  </outline>
</glyph>
<glyph name="comma" format="1">
  <advance width="156"/>
  <unicode hex="002C"/>
  <outline>
    <contour>
      <point x="120" y="91" type="line"/>
      <point x="52" y="-109" type="line"/>
      <point x="25" y="-109" type="line"/>
      <point x="56" y="91" type="line"/>
    </contour>
  </outline>
</glyph>
<glyph name="hyphen" format="1">
  <advance width="235"/>
  <unicode hex="002D"/>
  <unicode hex="2010"/>
  <unicode hex="2011"/>
  <outline>
    <contour>
      <point x="213" y="254" type="line"/>
      <point x="30" y="254" type="line"/>
      <point x="30" y="307" type="line"/>
      <point x="213" y="307" type="line"/>
    </contour>
  </outline>
</glyph>
<glyph name="period" format="1">
  <advance width="147"/>
  <unicode hex="002E"/>
  <outline>
    <contour>
      <point x="120" y="35" type="curve" smooth="yes"/>
      <point x="120" y="10"/>
      <point x="102" y="-7"/>
      <point x="78" y="-7" type="curve" smooth="yes"/>
      <point x="53" y="-7"/>
      <point x="36" y="10"/>
      <point x="36" y="35" type="curve" smooth="yes"/>
      <point x="36" y="60"/>
      <point x="53" y="77"/>
      <point x="78" y="77" type="curve" smooth="yes"/>
      <point x="102" y="77"/>
      <point x="120" y="60"/>
    </contour>
  </outline>
</glyph>
<glyph name="slash" format="1">
  <advance width="299"/>
  <unicode hex="002F"/>
  <outline>
    <contour>
      <point x="287" y="735" type="line"/>
      <point x="42" y="-95" type="line"/>
      <point x="-10" y="-95" type="line"/>
      <point x="235" y="735" type="line"/>
    </contour>
  </outline>
</glyph>
<glyph name="zero" format="1">
  <advance width="473"/>
  <unicode hex="0030"/>
  <outline>
    <contour>
      <point x="432" y="313" type="line" smooth="yes"/>
      <point x="432" y="111"/>
      <point x="356" y="-12"/>
      <point x="236" y="-12" type="curve" smooth="yes"/>
      <point x="115" y="-12"/>
      <point x="41" y="110"/>
      <point x="41" y="311" type="curve" smooth="yes"/>
      <point x="41" y="407" type="line" smooth="yes"/>
      <point x="41" y="609"/>
      <point x="115" y="732"/>
      <point x="236" y="732" type="curve" smooth="yes"/>
      <point x="356" y="732"/>
      <point x="432" y="609"/>
      <point x="432" y="409" type="curve" smooth="yes"/>
    </contour>
    <contour>
      <point x="370" y="306" type="curve" smooth="yes"/>
      <point x="370" y="412" type="line" smooth="yes"/>
      <point x="370" y="563"/>
      <point x="325" y="684"/>
      <point x="236" y="684" type="curve" smooth="yes"/>
      <point x="148" y="684"/>
      <point x="103" y="565"/>
      <point x="103" y="414" type="curve" smooth="yes"/>
      <point x="103" y="308" type="line" smooth="yes"/>
      <point x="103" y="156"/>
      <point x="148" y="37"/>
      <point x="236" y="37" type="curve" smooth="yes"/>
      <point x="325" y="37"/>
      <point x="370" y="154"/>
    </contour>
  </outline>
</glyph>
<glyph name="one" format="1">
  <advance width="346"/>
  <unicode hex="0031"/>
  <outline>
    <contour>
      <point x="328" y="0" type="line"/>
      <point x="40" y="0" type="line"/>
      <point x="40" y="44" type="line"/>
      <point x="156" y="44" type="line"/>
      <point x="156" y="676" type="line"/>
      <point x="31" y="676" type="line"/>
      <point x="31" y="720" type="line"/>
      <point x="216" y="720" type="line"/>
      <point x="216" y="44" type="line"/>
      <point x="328" y="44" type="line"/>
    </contour>
  </outline>
</glyph>
<glyph name="two" format="1">
  <advance width="437"/>
  <unicode hex="0032"/>
  <outline>
    <contour>
      <point x="393" y="0" type="line"/>
      <point x="45" y="0" type="line"/>
      <point x="45" y="40" type="line"/>
      <point x="73" y="156"/>
      <point x="119" y="232"/>
      <point x="224" y="332" type="curve" smooth="yes"/>
      <point x="292" y="398"/>
      <point x="325" y="451"/>
      <point x="325" y="538" type="curve" smooth="yes"/>
      <point x="325" y="620"/>
      <point x="292" y="683"/>
      <point x="221" y="683" type="curve" smooth="yes"/>
      <point x="158" y="683"/>
      <point x="122" y="636"/>
      <point x="93" y="541" type="curve"/>
      <point x="41" y="560" type="line"/>
      <point x="74" y="673"/>
      <point x="134" y="732"/>
      <point x="223" y="732" type="curve" smooth="yes"/>
      <point x="332" y="732"/>
      <point x="386" y="647"/>
      <point x="386" y="539" type="curve" smooth="yes"/>
      <point x="386" y="427"/>
      <point x="335" y="367"/>
      <point x="256" y="291" type="curve" smooth="yes"/>
      <point x="171" y="210"/>
      <point x="127" y="137"/>
      <point x="107" y="49" type="curve"/>
      <point x="393" y="49" type="line"/>
    </contour>
  </outline>
</glyph>
<glyph name="five" format="1">
  <advance width="427"/>
  <unicode hex="0035"/>
  <outline>
    <contour>
      <point x="392" y="243" type="line" smooth="yes"/>
      <point x="392" y="73"/>
      <point x="296" y="-10"/>
      <point x="180" y="-10" type="curve" smooth="yes"/>
      <point x="118" y="-10"/>
      <point x="78" y="1"/>
      <point x="30" y="29" type="curve"/>
      <point x="53" y="77" type="line"/>
      <point x="98" y="48"/>
      <point x="130" y="40"/>
      <point x="178" y="40" type="curve" smooth="yes"/>
      <point x="273" y="40"/>
      <point x="330" y="118"/>
      <point x="330" y="241" type="curve" smooth="yes"/>
      <point x="330" y="244" type="line" smooth="yes"/>
      <point x="330" y="351"/>
      <point x="295" y="409"/>
      <point x="223" y="409" type="curve" smooth="yes"/>
      <point x="178" y="409"/>
      <point x="148" y="384"/>
      <point x="120" y="349" type="curve"/>
      <point x="58" y="349" type="line"/>
      <point x="88" y="720" type="line"/>
      <point x="362" y="720" type="line"/>
      <point x="362" y="669" type="line"/>
      <point x="133" y="669" type="line"/>
      <point x="110" y="391" type="line"/>
      <point x="116" y="391" type="line"/>
      <point x="146" y="430"/>
      <point x="182" y="456"/>
      <point x="238" y="456" type="curve" smooth="yes"/>
      <point x="331" y="456"/>
      <point x="392" y="388"/>
      <point x="392" y="248" type="curve" smooth="yes"/>
    </contour>
  </outline>
</glyph>
<glyph name="six" format="1">
  <advance width="441"/>
  <unicode hex="0036"/>
  <outline>
    <contour>
      <point x="417" y="225" type="curve" smooth="yes"/>
      <point x="417" y="81"/>
      <point x="336" y="-12"/>
      <point x="224" y="-12" type="curve" smooth="yes"/>
      <point x="111" y="-12"/>
      <point x="37" y="77"/>
      <point x="37" y="247" type="curve" smooth="yes"/>
      <point x="37" y="423"/>
      <point x="104" y="587"/>
      <point x="219" y="720" type="curve"/>
      <point x="294" y="720" type="line"/>
      <point x="187" y="609"/>
      <point x="119" y="470"/>
      <point x="100" y="356" type="curve"/>
      <point x="106" y="356" type="line"/>
      <point x="139" y="411"/>
      <point x="178" y="446"/>
      <point x="246" y="446" type="curve" smooth="yes"/>
      <point x="341" y="446"/>
      <point x="417" y="366"/>
    </contour>
    <contour>
      <point x="355" y="221" type="curve" smooth="yes"/>
      <point x="355" y="329"/>
      <point x="311" y="399"/>
      <point x="232" y="399" type="curve" smooth="yes"/>
      <point x="152" y="399"/>
      <point x="99" y="319"/>
      <point x="99" y="220" type="curve" smooth="yes"/>
      <point x="99" y="112"/>
      <point x="147" y="35"/>
      <point x="226" y="35" type="curve" smooth="yes"/>
      <point x="306" y="35"/>
      <point x="355" y="111"/>
    </contour>
  </outline>
</glyph>
<glyph name="nine" format="1">
  <advance width="441"/>
  <unicode hex="0039"/>
  <outline>
    <contour>
      <point x="404" y="473" type="curve" smooth="yes"/>
      <point x="404" y="297"/>
      <point x="336" y="133"/>
      <point x="222" y="0" type="curve"/>
      <point x="146" y="0" type="line"/>
      <point x="254" y="111"/>
      <point x="322" y="250"/>
      <point x="340" y="364" type="curve"/>
      <point x="335" y="364" type="line"/>
      <point x="301" y="309"/>
      <point x="262" y="274"/>
      <point x="195" y="274" type="curve" smooth="yes"/>
      <point x="100" y="274"/>
      <point x="24" y="354"/>
      <point x="24" y="495" type="curve" smooth="yes"/>
      <point x="24" y="639"/>
      <point x="105" y="732"/>
      <point x="217" y="732" type="curve" smooth="yes"/>
      <point x="330" y="732"/>
      <point x="404" y="643"/>
    </contour>
    <contour>
      <point x="342" y="500" type="curve" smooth="yes"/>
      <point x="342" y="608"/>
      <point x="294" y="685"/>
      <point x="214" y="685" type="curve" smooth="yes"/>
      <point x="135" y="685"/>
      <point x="86" y="609"/>
      <point x="86" y="499" type="curve" smooth="yes"/>
      <point x="86" y="391"/>
      <point x="130" y="321"/>
      <point x="208" y="321" type="curve" smooth="yes"/>
      <point x="289" y="321"/>
      <point x="342" y="401"/>
    </contour>
  </outline>
</glyph>
<glyph name="colon" format="1">
  <advance width="174"/>
  <unicode hex="003A"/>
  <outline>
    <contour>
      <point x="129" y="479" type="curve" smooth="yes"/>
      <point x="129" y="455"/>
      <point x="112" y="437"/>
      <point x="87" y="437" type="curve" smooth="yes"/>
      <point x="62" y="437"/>
      <point x="45" y="455"/>
      <point x="45" y="479" type="curve" smooth="yes"/>
      <point x="45" y="504"/>
      <point x="62" y="521"/>
      <point x="87" y="521" type="curve" smooth="yes"/>
      <point x="112" y="521"/>
      <point x="129" y="504"/>
    </contour>
    <contour>
      <point x="129" y="35" type="curve" smooth="yes"/>
      <point x="129" y="10"/>
      <point x="112" y="-7"/>
      <point x="87" y="-7" type="curve" smooth="yes"/>
      <point x="62" y="-7"/>
      <point x="45" y="10"/>
      <point x="45" y="35" type="curve" smooth="yes"/>
      <point x="45" y="60"/>
      <point x="62" y="77"/>
      <point x="87" y="77" type="curve" smooth="yes"/>
      <point x="112" y="77"/>
      <point x="129" y="60"/>
    </contour>
  </outline>
</glyph>
<glyph name="at" format="1">
  <advance width="778"/>
  <unicode hex="0040"/>
  <outline>
    <contour>
      <point x="737" y="333" type="curve" smooth="yes"/>
      <point x="737" y="150"/>
      <point x="649" y="31"/>
      <point x="558" y="31" type="curve" smooth="yes"/>
      <point x="498" y="31"/>
      <point x="459" y="72"/>
      <point x="454" y="146" type="curve"/>
      <point x="450" y="146" type="line"/>
      <point x="410" y="69"/>
      <point x="369" y="31"/>
      <point x="317" y="31" type="curve" smooth="yes"/>
      <point x="259" y="31"/>
      <point x="219" y="86"/>
      <point x="219" y="190" type="curve" smooth="yes"/>
      <point x="219" y="362"/>
      <point x="296" y="514"/>
      <point x="388" y="514" type="curve" smooth="yes"/>
      <point x="445" y="514"/>
      <point x="471" y="462"/>
      <point x="485" y="394" type="curve"/>
      <point x="488" y="393" type="line"/>
      <point x="510" y="512" type="line"/>
      <point x="558" y="493" type="line"/>
      <point x="504" y="193" type="line" smooth="yes"/>
      <point x="491" y="121"/>
      <point x="513" y="60"/>
      <point x="568" y="60" type="curve" smooth="yes"/>
      <point x="638" y="60"/>
      <point x="706" y="174"/>
      <point x="706" y="331" type="curve" smooth="yes"/>
      <point x="706" y="561"/>
      <point x="583" y="705"/>
      <point x="402" y="705" type="curve" smooth="yes"/>
      <point x="214" y="705"/>
      <point x="70" y="514"/>
      <point x="70" y="266" type="curve" smooth="yes"/>
      <point x="70" y="6"/>
      <point x="196" y="-165"/>
      <point x="395" y="-165" type="curve" smooth="yes"/>
      <point x="491" y="-165"/>
      <point x="560" y="-136"/>
      <point x="629" y="-85" type="curve"/>
      <point x="644" y="-109" type="line"/>
      <point x="570" y="-161"/>
      <point x="495" y="-192"/>
      <point x="393" y="-192" type="curve" smooth="yes"/>
      <point x="179" y="-192"/>
      <point x="38" y="-15"/>
      <point x="38" y="265" type="curve" smooth="yes"/>
      <point x="38" y="536"/>
      <point x="203" y="732"/>
      <point x="404" y="732" type="curve" smooth="yes"/>
      <point x="592" y="732"/>
      <point x="737" y="580"/>
    </contour>
    <contour>
      <point x="474" y="319" type="curve" smooth="yes"/>
      <point x="476" y="391"/>
      <point x="448" y="472"/>
      <point x="397" y="472" type="curve" smooth="yes"/>
      <point x="327" y="472"/>
      <point x="271" y="338"/>
      <point x="271" y="193" type="curve" smooth="yes"/>
      <point x="271" y="118"/>
      <point x="294" y="69"/>
      <point x="336" y="69" type="curve" smooth="yes"/>
      <point x="402" y="69"/>
      <point x="471" y="201"/>
    </contour>
  </outline>
</glyph>
<glyph name="C" format="1">
  <advance width="453"/>
  <unicode hex="0043"/>
  <outline>
    <contour>
      <point x="424" y="207" type="line"/>
      <point x="400" y="73"/>
      <point x="348" y="-12"/>
      <point x="237" y="-12" type="curve" smooth="yes"/>
      <point x="115" y="-12"/>
      <point x="41" y="114"/>
      <point x="41" y="317" type="curve" smooth="yes"/>
      <point x="41" y="402" type="line" smooth="yes"/>
      <point x="41" y="605"/>
      <point x="115" y="732"/>
      <point x="237" y="732" type="curve" smooth="yes"/>
      <point x="342" y="732"/>
      <point x="397" y="654"/>
      <point x="420" y="528" type="curve"/>
      <point x="362" y="510" type="line"/>
      <point x="342" y="621"/>
      <point x="307" y="683"/>
      <point x="237" y="683" type="curve" smooth="yes"/>
      <point x="148" y="683"/>
      <point x="104" y="567"/>
      <point x="104" y="408" type="curve" smooth="yes"/>
      <point x="104" y="314" type="line" smooth="yes"/>
      <point x="104" y="154"/>
      <point x="150" y="37"/>
      <point x="239" y="37" type="curve" smooth="yes"/>
      <point x="310" y="37"/>
      <point x="345" y="99"/>
      <point x="368" y="221" type="curve"/>
    </contour>
  </outline>
</glyph>
<glyph name="E" format="1">
  <advance width="423"/>
  <unicode hex="0045"/>
  <outline>
    <contour>
      <point x="396" y="0" type="line"/>
      <point x="65" y="0" type="line"/>
      <point x="65" y="720" type="line"/>
      <point x="386" y="720" type="line"/>
      <point x="386" y="670" type="line"/>
      <point x="127" y="670" type="line"/>
      <point x="127" y="401" type="line"/>
      <point x="341" y="401" type="line"/>
      <point x="341" y="352" type="line"/>
      <point x="127" y="352" type="line"/>
      <point x="127" y="50" type="line"/>
      <point x="396" y="50" type="line"/>
    </contour>
  </outline>
</glyph>
<glyph name="F" format="1">
  <advance width="397"/>
  <unicode hex="0046"/>
  <outline>
    <contour>
      <point x="383" y="670" type="line"/>
      <point x="128" y="670" type="line"/>
      <point x="128" y="385" type="line"/>
      <point x="333" y="385" type="line"/>
      <point x="333" y="336" type="line"/>
      <point x="128" y="336" type="line"/>
      <point x="128" y="0" type="line"/>
      <point x="65" y="0" type="line"/>
      <point x="65" y="720" type="line"/>
      <point x="383" y="720" type="line"/>
    </contour>
  </outline>
</glyph>
<glyph name="G" format="1">
  <advance width="485"/>
  <unicode hex="0047"/>
  <outline>
    <contour>
      <point x="439" y="0" type="line"/>
      <point x="406" y="0" type="line"/>
      <point x="402" y="211" type="line"/>
      <point x="398" y="211" type="line"/>
      <point x="375" y="73"/>
      <point x="331" y="-12"/>
      <point x="231" y="-12" type="curve" smooth="yes"/>
      <point x="115" y="-12"/>
      <point x="41" y="115"/>
      <point x="41" y="318" type="curve" smooth="yes"/>
      <point x="41" y="402" type="line" smooth="yes"/>
      <point x="41" y="605"/>
      <point x="120" y="732"/>
      <point x="238" y="732" type="curve" smooth="yes"/>
      <point x="346" y="732"/>
      <point x="395" y="658"/>
      <point x="421" y="543" type="curve"/>
      <point x="364" y="524" type="line"/>
      <point x="343" y="622"/>
      <point x="308" y="683"/>
      <point x="238" y="683" type="curve" smooth="yes"/>
      <point x="150" y="683"/>
      <point x="104" y="567"/>
      <point x="104" y="408" type="curve" smooth="yes"/>
      <point x="104" y="315" type="line" smooth="yes"/>
      <point x="104" y="151"/>
      <point x="152" y="37"/>
      <point x="238" y="37" type="curve" smooth="yes"/>
      <point x="321" y="37"/>
      <point x="357" y="129"/>
      <point x="369" y="292" type="curve"/>
      <point x="249" y="292" type="line"/>
      <point x="249" y="328" type="line"/>
      <point x="439" y="328" type="line"/>
    </contour>
  </outline>
</glyph>
<glyph name="H" format="1">
  <advance width="492"/>
  <unicode hex="0048"/>
  <outline>
    <contour>
      <point x="428" y="0" type="line"/>
      <point x="364" y="0" type="line"/>
      <point x="364" y="351" type="line"/>
      <point x="128" y="351" type="line"/>
      <point x="128" y="0" type="line"/>
      <point x="65" y="0" type="line"/>
      <point x="65" y="720" type="line"/>
      <point x="128" y="720" type="line"/>
      <point x="128" y="402" type="line"/>
      <point x="364" y="402" type="line"/>
      <point x="364" y="720" type="line"/>
      <point x="428" y="720" type="line"/>
    </contour>
  </outline>
</glyph>
<glyph name="I" format="1">
  <advance width="309"/>
  <unicode hex="0049"/>
  <outline>
    <contour>
      <point x="266" y="0" type="line"/>
      <point x="43" y="0" type="line"/>
      <point x="43" y="31" type="line"/>
      <point x="123" y="31" type="line"/>
      <point x="123" y="689" type="line"/>
      <point x="43" y="689" type="line"/>
      <point x="43" y="720" type="line"/>
      <point x="266" y="720" type="line"/>
      <point x="266" y="689" type="line"/>
      <point x="186" y="689" type="line"/>
      <point x="186" y="31" type="line"/>
      <point x="266" y="31" type="line"/>
    </contour>
  </outline>
</glyph>
<glyph name="N" format="1">
  <advance width="505"/>
  <unicode hex="004E"/>
  <outline>
    <contour>
      <point x="440" y="0" type="line"/>
      <point x="370" y="0" type="line"/>
      <point x="123" y="616" type="line"/>
      <point x="118" y="616" type="line"/>
      <point x="118" y="0" type="line"/>
      <point x="65" y="0" type="line"/>
      <point x="65" y="720" type="line"/>
      <point x="139" y="720" type="line"/>
      <point x="382" y="116" type="line"/>
      <point x="386" y="116" type="line"/>
      <point x="386" y="720" type="line"/>
      <point x="440" y="720" type="line"/>
    </contour>
  </outline>
</glyph>
<glyph name="P" format="1">
  <advance width="446"/>
  <unicode hex="0050"/>
  <outline>
    <contour>
      <point x="417" y="515" type="curve" smooth="yes"/>
      <point x="417" y="380"/>
      <point x="339" y="305"/>
      <point x="201" y="305" type="curve" smooth="yes"/>
      <point x="128" y="305" type="line"/>
      <point x="128" y="0" type="line"/>
      <point x="65" y="0" type="line"/>
      <point x="65" y="720" type="line"/>
      <point x="204" y="720" type="line" smooth="yes"/>
      <point x="338" y="720"/>
      <point x="417" y="648"/>
    </contour>
    <contour>
      <point x="356" y="512" type="curve" smooth="yes"/>
      <point x="356" y="615"/>
      <point x="306" y="672"/>
      <point x="208" y="672" type="curve" smooth="yes"/>
      <point x="127" y="672" type="line"/>
      <point x="127" y="353" type="line"/>
      <point x="211" y="353" type="line" smooth="yes"/>
      <point x="306" y="353"/>
      <point x="356" y="407"/>
    </contour>
  </outline>
</glyph>
<glyph name="R" format="1">
  <advance width="469"/>
  <unicode hex="0052"/>
  <outline>
    <contour>
      <point x="440" y="0" type="line"/>
      <point x="372" y="0" type="line"/>
      <point x="218" y="318" type="line"/>
      <point x="127" y="318" type="line"/>
      <point x="127" y="0" type="line"/>
      <point x="65" y="0" type="line"/>
      <point x="65" y="720" type="line"/>
      <point x="213" y="720" type="line" smooth="yes"/>
      <point x="347" y="720"/>
      <point x="425" y="654"/>
      <point x="425" y="521" type="curve" smooth="yes"/>
      <point x="425" y="407"/>
      <point x="363" y="346"/>
      <point x="276" y="332" type="curve"/>
    </contour>
    <contour>
      <point x="363" y="517" type="curve" smooth="yes"/>
      <point x="363" y="620"/>
      <point x="313" y="672"/>
      <point x="215" y="672" type="curve" smooth="yes"/>
      <point x="127" y="672" type="line"/>
      <point x="127" y="364" type="line"/>
      <point x="219" y="364" type="line" smooth="yes"/>
      <point x="312" y="364"/>
      <point x="363" y="411"/>
    </contour>
  </outline>
</glyph>
<glyph name="V" format="1">
  <advance width="475"/>
  <unicode hex="0056"/>
  <outline>
    <contour>
      <point x="462" y="720" type="line"/>
      <point x="279" y="-7" type="line"/>
      <point x="202" y="-7" type="line"/>
      <point x="21" y="720" type="line"/>
      <point x="86" y="720" type="line"/>
      <point x="240" y="70" type="line"/>
      <point x="245" y="70" type="line"/>
      <point x="400" y="720" type="line"/>
    </contour>
  </outline>
</glyph>
<glyph name="bracketright" format="1">
  <advance width="273"/>
  <unicode hex="005D"/>
  <outline>
    <contour>
      <point x="210" y="-88" type="line"/>
      <point x="20" y="-80" type="line"/>
      <point x="20" y="-44" type="line"/>
      <point x="156" y="-51" type="line"/>
      <point x="156" y="691" type="line"/>
      <point x="20" y="684" type="line"/>
      <point x="20" y="720" type="line"/>
      <point x="210" y="728" type="line"/>
    </contour>
  </outline>
</glyph>
<glyph name="a" format="1">
  <advance width="383"/>
  <unicode hex="0061"/>
  <outline>
    <contour>
      <point x="364" y="-4" type="line"/>
      <point x="309" y="-4"/>
      <point x="274" y="30"/>
      <point x="266" y="78" type="curve"/>
      <point x="262" y="78" type="line"/>
      <point x="235" y="33"/>
      <point x="195" y="-8"/>
      <point x="138" y="-8" type="curve" smooth="yes"/>
      <point x="73" y="-8"/>
      <point x="25" y="41"/>
      <point x="25" y="124" type="curve" smooth="yes"/>
      <point x="25" y="221"/>
      <point x="103" y="295"/>
      <point x="263" y="308" type="curve"/>
      <point x="263" y="383" type="line" smooth="yes"/>
      <point x="263" y="447"/>
      <point x="241" y="476"/>
      <point x="196" y="476" type="curve" smooth="yes"/>
      <point x="155" y="476"/>
      <point x="121" y="460"/>
      <point x="75" y="432" type="curve"/>
      <point x="56" y="472" type="line"/>
      <point x="101" y="500"/>
      <point x="148" y="522"/>
      <point x="210" y="522" type="curve" smooth="yes"/>
      <point x="288" y="522"/>
      <point x="322" y="479"/>
      <point x="322" y="384" type="curve" smooth="yes"/>
      <point x="322" y="98" type="line" smooth="yes"/>
      <point x="322" y="58"/>
      <point x="335" y="35"/>
      <point x="364" y="33" type="curve"/>
    </contour>
    <contour>
      <point x="263" y="118" type="curve"/>
      <point x="263" y="275" type="line"/>
      <point x="133" y="263"/>
      <point x="82" y="199"/>
      <point x="82" y="130" type="curve" smooth="yes"/>
      <point x="82" y="72"/>
      <point x="114" y="35"/>
      <point x="161" y="35" type="curve" smooth="yes"/>
      <point x="198" y="35"/>
      <point x="234" y="61"/>
    </contour>
  </outline>
</glyph>
<glyph name="e" format="1">
  <advance width="367"/>
  <unicode hex="0065"/>
  <outline>
    <contour>
      <point x="335" y="247" type="line"/>
      <point x="90" y="247" type="line"/>
      <point x="90" y="228" type="line" smooth="yes"/>
      <point x="90" y="106"/>
      <point x="134" y="37"/>
      <point x="205" y="37" type="curve" smooth="yes"/>
      <point x="245" y="37"/>
      <point x="280" y="57"/>
      <point x="311" y="92" type="curve"/>
      <point x="333" y="55" type="line"/>
      <point x="298" y="17"/>
      <point x="254" y="-10"/>
      <point x="198" y="-10" type="curve" smooth="yes"/>
      <point x="100" y="-10"/>
      <point x="34" y="76"/>
      <point x="34" y="230" type="curve" smooth="yes"/>
      <point x="34" y="285" type="line" smooth="yes"/>
      <point x="34" y="430"/>
      <point x="94" y="527"/>
      <point x="188" y="527" type="curve" smooth="yes"/>
      <point x="280" y="527"/>
      <point x="335" y="421"/>
      <point x="335" y="259" type="curve" smooth="yes"/>
    </contour>
    <contour>
      <point x="279" y="283" type="line"/>
      <point x="277" y="401"/>
      <point x="242" y="486"/>
      <point x="187" y="486" type="curve" smooth="yes"/>
      <point x="125" y="486"/>
      <point x="90" y="405"/>
      <point x="90" y="286" type="curve" smooth="yes"/>
      <point x="90" y="283" type="line"/>
    </contour>
  </outline>
</glyph>
<glyph name="g" format="1">
  <advance width="407"/>
  <unicode hex="0067"/>
  <outline>
    <contour>
      <point x="353" y="1" type="line" smooth="yes"/>
      <point x="353" y="-138"/>
      <point x="286" y="-190"/>
      <point x="189" y="-190" type="curve" smooth="yes"/>
      <point x="131" y="-190"/>
      <point x="97" y="-178"/>
      <point x="69" y="-166" type="curve"/>
      <point x="69" y="-111" type="line"/>
      <point x="89" y="-111" type="line"/>
      <point x="104" y="-139"/>
      <point x="133" y="-153"/>
      <point x="188" y="-153" type="curve" smooth="yes"/>
      <point x="249" y="-153"/>
      <point x="293" y="-116"/>
      <point x="293" y="-11" type="curve" smooth="yes"/>
      <point x="293" y="98" type="line"/>
      <point x="289" y="98" type="line"/>
      <point x="259" y="38"/>
      <point x="222" y="-10"/>
      <point x="167" y="-10" type="curve" smooth="yes"/>
      <point x="93" y="-10"/>
      <point x="34" y="78"/>
      <point x="34" y="244" type="curve" smooth="yes"/>
      <point x="34" y="272" type="line" smooth="yes"/>
      <point x="34" y="436"/>
      <point x="98" y="526"/>
      <point x="170" y="526" type="curve" smooth="yes"/>
      <point x="221" y="526"/>
      <point x="260" y="480"/>
      <point x="289" y="423" type="curve"/>
      <point x="293" y="423" type="line"/>
      <point x="293" y="526" type="line"/>
      <point x="353" y="505" type="line"/>
    </contour>
    <contour>
      <point x="298" y="258" type="curve" smooth="yes"/>
      <point x="298" y="378"/>
      <point x="248" y="480"/>
      <point x="185" y="480" type="curve" smooth="yes"/>
      <point x="132" y="480"/>
      <point x="92" y="406"/>
      <point x="92" y="259" type="curve" smooth="yes"/>
      <point x="92" y="105"/>
      <point x="134" y="37"/>
      <point x="188" y="37" type="curve" smooth="yes"/>
      <point x="247" y="37"/>
      <point x="298" y="138"/>
    </contour>
  </outline>
</glyph>
<glyph name="k" format="1">
  <advance width="368"/>
  <unicode hex="006B"/>
  <outline>
    <contour>
      <point x="364" y="0" type="line"/>
      <point x="297" y="0" type="line"/>
      <point x="128" y="259" type="line"/>
      <point x="128" y="262" type="line"/>
      <point x="294" y="517" type="line"/>
      <point x="358" y="517" type="line"/>
      <point x="191" y="264" type="line"/>
    </contour>
    <contour>
      <point x="113" y="0" type="line"/>
      <point x="54" y="0" type="line"/>
      <point x="54" y="740" type="line"/>
      <point x="113" y="761" type="line"/>
    </contour>
  </outline>
</glyph>
<glyph name="l" format="1">
  <advance width="179"/>
  <unicode hex="006C"/>
  <outline>
    <contour>
      <point x="119" y="0" type="line"/>
      <point x="60" y="0" type="line"/>
      <point x="60" y="740" type="line"/>
      <point x="119" y="761" type="line"/>
    </contour>
  </outline>
</glyph>
<glyph name="o" format="1">
  <advance width="390"/>
  <unicode hex="006F"/>
  <outline>
    <contour>
      <point x="357" y="239" type="line" smooth="yes"/>
      <point x="357" y="94"/>
      <point x="294" y="-10"/>
      <point x="194" y="-10" type="curve" smooth="yes"/>
      <point x="94" y="-10"/>
      <point x="34" y="94"/>
      <point x="34" y="239" type="curve" smooth="yes"/>
      <point x="34" y="278" type="line" smooth="yes"/>
      <point x="34" y="423"/>
      <point x="96" y="527"/>
      <point x="196" y="527" type="curve" smooth="yes"/>
      <point x="296" y="527"/>
      <point x="357" y="423"/>
      <point x="357" y="278" type="curve" smooth="yes"/>
    </contour>
    <contour>
      <point x="298" y="235" type="curve" smooth="yes"/>
      <point x="298" y="282" type="line" smooth="yes"/>
      <point x="298" y="398"/>
      <point x="257" y="485"/>
      <point x="194" y="485" type="curve" smooth="yes"/>
      <point x="131" y="485"/>
      <point x="92" y="398"/>
      <point x="92" y="282" type="curve" smooth="yes"/>
      <point x="92" y="235" type="line" smooth="yes"/>
      <point x="92" y="119"/>
      <point x="133" y="32"/>
      <point x="196" y="32" type="curve" smooth="yes"/>
      <point x="259" y="32"/>
      <point x="298" y="119"/>
    </contour>
  </outline>
</glyph>
<glyph name="p" format="1">
  <advance width="406"/>
  <unicode hex="0070"/>
  <outline>
    <contour>
      <point x="372" y="245" type="line" smooth="yes"/>
      <point x="372" y="81"/>
      <point x="309" y="-10"/>
      <point x="237" y="-10" type="curve" smooth="yes"/>
      <point x="186" y="-10"/>
      <point x="146" y="37"/>
      <point x="118" y="93" type="curve"/>
      <point x="113" y="93" type="line"/>
      <point x="113" y="-188" type="line"/>
      <point x="54" y="-188" type="line"/>
      <point x="54" y="505" type="line"/>
      <point x="113" y="526" type="line"/>
      <point x="113" y="419" type="line"/>
      <point x="118" y="419" type="line"/>
      <point x="148" y="479"/>
      <point x="185" y="526"/>
      <point x="240" y="526" type="curve" smooth="yes"/>
      <point x="313" y="526"/>
      <point x="372" y="439"/>
      <point x="372" y="273" type="curve" smooth="yes"/>
    </contour>
    <contour>
      <point x="314" y="258" type="curve" smooth="yes"/>
      <point x="314" y="412"/>
      <point x="273" y="480"/>
      <point x="219" y="480" type="curve" smooth="yes"/>
      <point x="160" y="480"/>
      <point x="108" y="378"/>
      <point x="108" y="258" type="curve" smooth="yes"/>
      <point x="108" y="139"/>
      <point x="159" y="37"/>
      <point x="222" y="37" type="curve" smooth="yes"/>
      <point x="275" y="37"/>
      <point x="314" y="111"/>
    </contour>
  </outline>
</glyph>
<glyph name="q" format="1">
  <advance width="406"/>
  <unicode hex="0071"/>
  <outline>
    <contour>
      <point x="352" y="-188" type="line"/>
      <point x="293" y="-188" type="line"/>
      <point x="293" y="98" type="line"/>
      <point x="289" y="98" type="line"/>
      <point x="259" y="38"/>
      <point x="222" y="-10"/>
      <point x="167" y="-10" type="curve" smooth="yes"/>
      <point x="93" y="-10"/>
      <point x="34" y="78"/>
      <point x="34" y="244" type="curve" smooth="yes"/>
      <point x="34" y="272" type="line" smooth="yes"/>
      <point x="34" y="436"/>
      <point x="98" y="526"/>
      <point x="170" y="526" type="curve" smooth="yes"/>
      <point x="221" y="526"/>
      <point x="260" y="480"/>
      <point x="289" y="423" type="curve"/>
      <point x="293" y="423" type="line"/>
      <point x="293" y="526" type="line"/>
      <point x="352" y="505" type="line"/>
    </contour>
    <contour>
      <point x="298" y="258" type="curve" smooth="yes"/>
      <point x="298" y="378"/>
      <point x="248" y="480"/>
      <point x="185" y="480" type="curve" smooth="yes"/>
      <point x="132" y="480"/>
      <point x="92" y="406"/>
      <point x="92" y="259" type="curve" smooth="yes"/>
      <point x="92" y="105"/>
      <point x="134" y="37"/>
      <point x="188" y="37" type="curve" smooth="yes"/>
      <point x="247" y="37"/>
      <point x="298" y="138"/>
    </contour>
  </outline>
</glyph>
<glyph name="t" format="1">
  <advance width="277"/>
  <unicode hex="0074"/>
  <outline>
    <contour>
      <point x="261" y="24" type="line"/>
      <point x="229" y="3"/>
      <point x="203" y="-7"/>
      <point x="172" y="-7" type="curve" smooth="yes"/>
      <point x="121" y="-7"/>
      <point x="86" y="20"/>
      <point x="86" y="88" type="curve" smooth="yes"/>
      <point x="86" y="469" type="line"/>
      <point x="13" y="469" type="line"/>
      <point x="13" y="512" type="line"/>
      <point x="86" y="512" type="line"/>
      <point x="86" y="687" type="line"/>
      <point x="144" y="731" type="line"/>
      <point x="144" y="512" type="line"/>
      <point x="243" y="512" type="line"/>
      <point x="243" y="469" type="line"/>
      <point x="144" y="469" type="line"/>
      <point x="144" y="98" type="line" smooth="yes"/>
      <point x="144" y="58"/>
      <point x="162" y="41"/>
      <point x="191" y="41" type="curve" smooth="yes"/>
      <point x="212" y="41"/>
      <point x="232" y="49"/>
      <point x="261" y="70" type="curve"/>
    </contour>
  </outline>
</glyph>
<glyph name="u" format="1">
  <advance width="392"/>
  <unicode hex="0075"/>
  <outline>
    <contour>
      <point x="338" y="12" type="line"/>
      <point x="279" y="-9" type="line"/>
      <point x="279" y="101" type="line"/>
      <point x="275" y="101" type="line"/>
      <point x="232" y="37"/>
      <point x="192" y="-5"/>
      <point x="136" y="-5" type="curve" smooth="yes"/>
      <point x="79" y="-5"/>
      <point x="51" y="37"/>
      <point x="51" y="100" type="curve" smooth="yes"/>
      <point x="51" y="517" type="line"/>
      <point x="111" y="517" type="line"/>
      <point x="111" y="111" type="line" smooth="yes"/>
      <point x="111" y="64"/>
      <point x="128" y="42"/>
      <point x="162" y="42" type="curve" smooth="yes"/>
      <point x="198" y="42"/>
      <point x="240" y="77"/>
      <point x="279" y="147" type="curve"/>
      <point x="279" y="517" type="line"/>
      <point x="338" y="517" type="line"/>
    </contour>
  </outline>
</glyph>
<glyph name="exclamdown" format="1">
  <advance width="200"/>
  <unicode hex="00A1"/>
  <outline>
    <contour>
      <point x="142" y="685" type="curve" smooth="yes"/>
      <point x="142" y="660"/>
      <point x="125" y="643"/>
      <point x="100" y="643" type="curve" smooth="yes"/>
      <point x="76" y="643"/>
      <point x="58" y="660"/>
      <point x="58" y="685" type="curve" smooth="yes"/>
      <point x="58" y="710"/>
      <point x="76" y="727"/>
      <point x="100" y="727" type="curve" smooth="yes"/>
      <point x="125" y="727"/>
      <point x="142" y="710"/>
    </contour>
    <contour>
      <point x="136" y="0" type="line"/>
      <point x="65" y="0" type="line"/>
      <point x="85" y="533" type="line"/>
      <point x="116" y="533" type="line"/>
    </contour>
  </outline>
</glyph>
<glyph name="sterling" format="1">
  <advance width="447"/>
  <unicode hex="00A3"/>
  <outline>
    <contour>
      <point x="427" y="169" type="line"/>
      <point x="409" y="46"/>
      <point x="369" y="-6"/>
      <point x="296" y="-6" type="curve" smooth="yes"/>
      <point x="248" y="-6"/>
      <point x="201" y="20"/>
      <point x="153" y="63" type="curve"/>
      <point x="125" y="30"/>
      <point x="87" y="8"/>
      <point x="41" y="-6" type="curve"/>
      <point x="41" y="45" type="line"/>
      <point x="100" y="66"/>
      <point x="141" y="111"/>
      <point x="141" y="211" type="curve" smooth="yes"/>
      <point x="141" y="257"/>
      <point x="134" y="300"/>
      <point x="126" y="338" type="curve"/>
      <point x="34" y="338" type="line"/>
      <point x="34" y="377" type="line"/>
      <point x="116" y="377" type="line"/>
      <point x="100" y="436"/>
      <point x="83" y="491"/>
      <point x="83" y="553" type="curve" smooth="yes"/>
      <point x="83" y="664"/>
      <point x="146" y="732"/>
      <point x="243" y="732" type="curve" smooth="yes"/>
      <point x="330" y="732"/>
      <point x="373" y="683"/>
      <point x="405" y="613" type="curve"/>
      <point x="356" y="586" type="line"/>
      <point x="328" y="645"/>
      <point x="299" y="682"/>
      <point x="243" y="682" type="curve" smooth="yes"/>
      <point x="180" y="682"/>
      <point x="143" y="631"/>
      <point x="143" y="553" type="curve" smooth="yes"/>
      <point x="143" y="497"/>
      <point x="162" y="440"/>
      <point x="177" y="377" type="curve"/>
      <point x="327" y="377" type="line"/>
      <point x="327" y="338" type="line"/>
      <point x="187" y="338" type="line"/>
      <point x="195" y="299"/>
      <point x="201" y="257"/>
      <point x="201" y="212" type="curve" smooth="yes"/>
      <point x="201" y="169"/>
      <point x="193" y="134"/>
      <point x="180" y="105" type="curve"/>
      <point x="221" y="64"/>
      <point x="261" y="45"/>
      <point x="295" y="45" type="curve" smooth="yes"/>
      <point x="342" y="45"/>
      <point x="367" y="81"/>
      <point x="385" y="186" type="curve"/>
    </contour>
  </outline>
</glyph>
<glyph name="section" format="1">
  <advance width="450"/>
  <unicode hex="00A7"/>
  <outline>
    <contour>
      <point x="420" y="343" type="curve" smooth="yes"/>
      <point x="420" y="275"/>
      <point x="367" y="226"/>
      <point x="286" y="225" type="curve"/>
      <point x="286" y="219" type="line"/>
      <point x="335" y="195"/>
      <point x="372" y="160"/>
      <point x="372" y="101" type="curve" smooth="yes"/>
      <point x="372" y="34"/>
      <point x="318" y="-12"/>
      <point x="232" y="-12" type="curve" smooth="yes"/>
      <point x="171" y="-12"/>
      <point x="126" y="4"/>
      <point x="76" y="37" type="curve"/>
      <point x="100" y="79" type="line"/>
      <point x="144" y="48"/>
      <point x="185" y="33"/>
      <point x="235" y="33" type="curve" smooth="yes"/>
      <point x="288" y="33"/>
      <point x="319" y="60"/>
      <point x="319" y="101" type="curve" smooth="yes"/>
      <point x="319" y="145"/>
      <point x="296" y="177"/>
      <point x="192" y="218" type="curve" smooth="yes"/>
      <point x="82" y="261"/>
      <point x="30" y="305"/>
      <point x="30" y="377" type="curve" smooth="yes"/>
      <point x="30" y="445"/>
      <point x="84" y="494"/>
      <point x="164" y="495" type="curve"/>
      <point x="164" y="501" type="line"/>
      <point x="115" y="525"/>
      <point x="78" y="560"/>
      <point x="78" y="619" type="curve" smooth="yes"/>
      <point x="78" y="686"/>
      <point x="133" y="732"/>
      <point x="218" y="732" type="curve" smooth="yes"/>
      <point x="280" y="732"/>
      <point x="324" y="716"/>
      <point x="374" y="683" type="curve"/>
      <point x="350" y="641" type="line"/>
      <point x="307" y="672"/>
      <point x="265" y="687"/>
      <point x="216" y="687" type="curve" smooth="yes"/>
      <point x="162" y="687"/>
      <point x="131" y="660"/>
      <point x="131" y="619" type="curve" smooth="yes"/>
      <point x="131" y="575"/>
      <point x="154" y="543"/>
      <point x="258" y="502" type="curve" smooth="yes"/>
      <point x="368" y="459"/>
      <point x="420" y="415"/>
    </contour>
    <contour>
      <point x="367" y="336" type="curve" smooth="yes"/>
      <point x="367" y="376"/>
      <point x="345" y="413"/>
      <point x="268" y="447" type="curve" smooth="yes"/>
      <point x="235" y="461"/>
      <point x="206" y="465"/>
      <point x="174" y="465" type="curve" smooth="yes"/>
      <point x="123" y="465"/>
      <point x="83" y="437"/>
      <point x="83" y="384" type="curve" smooth="yes"/>
      <point x="83" y="344"/>
      <point x="106" y="307"/>
      <point x="183" y="273" type="curve" smooth="yes"/>
      <point x="215" y="259"/>
      <point x="244" y="255"/>
      <point x="277" y="255" type="curve" smooth="yes"/>
      <point x="327" y="255"/>
      <point x="367" y="283"/>
    </contour>
  </outline>
</glyph>
<glyph name="copyright" format="1">
  <advance width="658"/>
  <unicode hex="00A9"/>
  <outline>
    <contour>
      <point x="623" y="360" type="curve" smooth="yes"/>
      <point x="623" y="146"/>
      <point x="501" y="-12"/>
      <point x="329" y="-12" type="curve" smooth="yes"/>
      <point x="158" y="-12"/>
      <point x="36" y="146"/>
      <point x="36" y="360" type="curve" smooth="yes"/>
      <point x="36" y="574"/>
      <point x="158" y="732"/>
      <point x="330" y="732" type="curve" smooth="yes"/>
      <point x="501" y="732"/>
      <point x="623" y="574"/>
    </contour>
    <contour>
      <point x="593" y="360" type="curve" smooth="yes"/>
      <point x="593" y="558"/>
      <point x="487" y="706"/>
      <point x="329" y="706" type="curve" smooth="yes"/>
      <point x="171" y="706"/>
      <point x="66" y="559"/>
      <point x="66" y="360" type="curve" smooth="yes"/>
      <point x="66" y="162"/>
      <point x="171" y="14"/>
      <point x="330" y="14" type="curve" smooth="yes"/>
      <point x="487" y="14"/>
      <point x="593" y="161"/>
    </contour>
    <contour>
      <point x="439" y="287" type="line"/>
      <point x="423" y="205"/>
      <point x="391" y="157"/>
      <point x="326" y="157" type="curve" smooth="yes"/>
      <point x="255" y="157"/>
      <point x="211" y="227"/>
      <point x="211" y="341" type="curve" smooth="yes"/>
      <point x="211" y="387" type="line" smooth="yes"/>
      <point x="211" y="502"/>
      <point x="256" y="572"/>
      <point x="326" y="572" type="curve" smooth="yes"/>
      <point x="389" y="572"/>
      <point x="421" y="528"/>
      <point x="436" y="452" type="curve"/>
      <point x="392" y="439" type="line"/>
      <point x="380" y="502"/>
      <point x="363" y="534"/>
      <point x="326" y="534" type="curve" smooth="yes"/>
      <point x="279" y="534"/>
      <point x="259" y="472"/>
      <point x="259" y="391" type="curve" smooth="yes"/>
      <point x="259" y="340" type="line" smooth="yes"/>
      <point x="259" y="257"/>
      <point x="282" y="196"/>
      <point x="327" y="196" type="curve" smooth="yes"/>
      <point x="365" y="196"/>
      <point x="382" y="232"/>
      <point x="395" y="299" type="curve"/>
    </contour>
  </outline>
</glyph>
<glyph name="ordfeminine" format="1">
  <advance width="290"/>
  <unicode hex="00AA"/>
  <outline>
    <contour>
      <point x="259" y="444" type="line"/>
      <point x="221" y="443"/>
      <point x="199" y="458"/>
      <point x="193" y="488" type="curve"/>
      <point x="192" y="488" type="line"/>
      <point x="168" y="457"/>
      <point x="142" y="442"/>
      <point x="111" y="442" type="curve" smooth="yes"/>
      <point x="70" y="442"/>
      <point x="36" y="468"/>
      <point x="36" y="518" type="curve" smooth="yes"/>
      <point x="36" y="572"/>
      <point x="87" y="611"/>
      <point x="189" y="612" type="curve"/>
      <point x="189" y="639" type="line" smooth="yes"/>
      <point x="189" y="673"/>
      <point x="178" y="689"/>
      <point x="149" y="689" type="curve" smooth="yes"/>
      <point x="123" y="689"/>
      <point x="97" y="681"/>
      <point x="69" y="664" type="curve"/>
      <point x="55" y="694" type="line"/>
      <point x="86" y="711"/>
      <point x="118" y="725"/>
      <point x="158" y="725" type="curve" smooth="yes"/>
      <point x="210" y="725"/>
      <point x="233" y="700"/>
      <point x="233" y="642" type="curve" smooth="yes"/>
      <point x="233" y="503" type="line" smooth="yes"/>
      <point x="233" y="484"/>
      <point x="241" y="471"/>
      <point x="259" y="470" type="curve"/>
    </contour>
    <contour>
      <point x="250" y="356" type="line"/>
      <point x="39" y="356" type="line"/>
      <point x="39" y="389" type="line"/>
      <point x="250" y="389" type="line"/>
    </contour>
    <contour>
      <point x="189" y="517" type="curve"/>
      <point x="189" y="586" type="line"/>
      <point x="111" y="586"/>
      <point x="80" y="555"/>
      <point x="80" y="521" type="curve" smooth="yes"/>
      <point x="80" y="492"/>
      <point x="97" y="476"/>
      <point x="122" y="476" type="curve" smooth="yes"/>
      <point x="148" y="476"/>
      <point x="171" y="490"/>
    </contour>
  </outline>
</glyph>
<glyph name="guillemotleft" format="1">
  <advance width="358"/>
  <unicode hex="00AB"/>
  <outline>
    <contour>
      <point x="328" y="78" type="line"/>
      <point x="291" y="78" type="line"/>
      <point x="167" y="258" type="line"/>
      <point x="291" y="439" type="line"/>
      <point x="328" y="439" type="line"/>
      <point x="234" y="258" type="line"/>
    </contour>
    <contour>
      <point x="179" y="78" type="line"/>
      <point x="142" y="78" type="line"/>
      <point x="18" y="258" type="line"/>
      <point x="142" y="439" type="line"/>
      <point x="179" y="439" type="line"/>
      <point x="85" y="258" type="line"/>
    </contour>
  </outline>
</glyph>
<glyph name="ordmasculine" format="1">
  <advance width="284"/>
  <unicode hex="00BA"/>
  <outline>
    <contour>
      <point x="250" y="580" type="line" smooth="yes"/>
      <point x="250" y="497"/>
      <point x="207" y="440"/>
      <point x="142" y="440" type="curve" smooth="yes"/>
      <point x="78" y="440"/>
      <point x="35" y="497"/>
      <point x="35" y="580" type="curve"/>
      <point x="34" y="581"/>
      <point x="34" y="587"/>
      <point x="35" y="588" type="curve"/>
      <point x="35" y="671"/>
      <point x="78" y="727"/>
      <point x="142" y="727" type="curve" smooth="yes"/>
      <point x="207" y="727"/>
      <point x="250" y="671"/>
      <point x="250" y="588" type="curve" smooth="yes"/>
    </contour>
    <contour>
      <point x="244" y="356" type="line"/>
      <point x="40" y="356" type="line"/>
      <point x="40" y="389" type="line"/>
      <point x="244" y="389" type="line"/>
    </contour>
    <contour>
      <point x="205" y="577" type="curve" smooth="yes"/>
      <point x="205" y="588" type="line" smooth="yes"/>
      <point x="205" y="649"/>
      <point x="182" y="692"/>
      <point x="142" y="692" type="curve" smooth="yes"/>
      <point x="102" y="692"/>
      <point x="80" y="651"/>
      <point x="80" y="590" type="curve"/>
      <point x="79" y="589"/>
      <point x="79" y="580"/>
      <point x="80" y="579" type="curve"/>
      <point x="80" y="518"/>
      <point x="102" y="475"/>
      <point x="142" y="475" type="curve" smooth="yes"/>
      <point x="182" y="475"/>
      <point x="205" y="516"/>
    </contour>
  </outline>
</glyph>
<glyph name="questiondown" format="1">
  <advance width="355"/>
  <unicode hex="00BF"/>
  <outline>
    <contour>
      <point x="233" y="685" type="curve" smooth="yes"/>
      <point x="233" y="660"/>
      <point x="216" y="643"/>
      <point x="191" y="643" type="curve" smooth="yes"/>
      <point x="167" y="643"/>
      <point x="149" y="660"/>
      <point x="149" y="685" type="curve" smooth="yes"/>
      <point x="149" y="710"/>
      <point x="167" y="727"/>
      <point x="191" y="727" type="curve" smooth="yes"/>
      <point x="216" y="727"/>
      <point x="233" y="710"/>
    </contour>
    <contour>
      <point x="336" y="137" type="line"/>
      <point x="314" y="42"/>
      <point x="263" y="-12"/>
      <point x="177" y="-12" type="curve" smooth="yes"/>
      <point x="89" y="-12"/>
      <point x="35" y="54"/>
      <point x="35" y="151" type="curve" smooth="yes"/>
      <point x="35" y="234"/>
      <point x="60" y="272"/>
      <point x="117" y="343" type="curve" smooth="yes"/>
      <point x="161" y="398"/>
      <point x="173" y="431"/>
      <point x="174" y="533" type="curve"/>
      <point x="209" y="533" type="line"/>
      <point x="214" y="411"/>
      <point x="205" y="370"/>
      <point x="151" y="302" type="curve" smooth="yes"/>
      <point x="111" y="251"/>
      <point x="94" y="210"/>
      <point x="94" y="155" type="curve" smooth="yes"/>
      <point x="94" y="86"/>
      <point x="127" y="39"/>
      <point x="181" y="39" type="curve" smooth="yes"/>
      <point x="234" y="39"/>
      <point x="265" y="77"/>
      <point x="287" y="155" type="curve"/>
    </contour>
  </outline>
</glyph>
<glyph name="Thorn" format="1">
  <advance width="446"/>
  <unicode hex="00DE"/>
  <outline>
    <contour>
      <point x="417" y="372" type="curve" smooth="yes"/>
      <point x="417" y="238"/>
      <point x="339" y="162"/>
      <point x="201" y="162" type="curve" smooth="yes"/>
      <point x="128" y="162" type="line"/>
      <point x="128" y="0" type="line"/>
      <point x="65" y="0" type="line"/>
      <point x="65" y="720" type="line"/>
      <point x="128" y="720" type="line"/>
      <point x="128" y="578" type="line"/>
      <point x="204" y="578" type="line" smooth="yes"/>
      <point x="338" y="578"/>
      <point x="417" y="506"/>
    </contour>
    <contour>
      <point x="356" y="370" type="curve" smooth="yes"/>
      <point x="356" y="473"/>
      <point x="306" y="530"/>
      <point x="208" y="530" type="curve" smooth="yes"/>
      <point x="127" y="530" type="line"/>
      <point x="127" y="211" type="line"/>
      <point x="211" y="211" type="line" smooth="yes"/>
      <point x="306" y="211"/>
      <point x="356" y="265"/>
    </contour>
  </outline>
</glyph>
<glyph name="germandbls" format="1">
  <advance width="458"/>
  <unicode hex="00DF"/>
  <outline>
    <contour>
      <point x="427" y="181" type="curve" smooth="yes"/>
      <point x="427" y="58"/>
      <point x="364" y="-10"/>
      <point x="283" y="-10" type="curve" smooth="yes"/>
      <point x="228" y="-10"/>
      <point x="199" y="13"/>
      <point x="172" y="45" type="curve"/>
      <point x="192" y="83" type="line"/>
      <point x="215" y="54"/>
      <point x="236" y="34"/>
      <point x="276" y="34" type="curve" smooth="yes"/>
      <point x="325" y="34"/>
      <point x="368" y="84"/>
      <point x="368" y="179" type="curve" smooth="yes"/>
      <point x="368" y="302"/>
      <point x="306" y="380"/>
      <point x="194" y="393" type="curve"/>
      <point x="194" y="432" type="line"/>
      <point x="278" y="436"/>
      <point x="317" y="505"/>
      <point x="317" y="584" type="curve" smooth="yes"/>
      <point x="317" y="657"/>
      <point x="283" y="717"/>
      <point x="218" y="717" type="curve" smooth="yes"/>
      <point x="150" y="717"/>
      <point x="115" y="664"/>
      <point x="115" y="564" type="curve" smooth="yes"/>
      <point x="115" y="0" type="line"/>
      <point x="55" y="0" type="line"/>
      <point x="55" y="557" type="line" smooth="yes"/>
      <point x="55" y="690"/>
      <point x="119" y="759"/>
      <point x="219" y="759" type="curve" smooth="yes"/>
      <point x="315" y="759"/>
      <point x="375" y="686"/>
      <point x="375" y="589" type="curve" smooth="yes"/>
      <point x="375" y="499"/>
      <point x="328" y="440"/>
      <point x="271" y="417" type="curve"/>
      <point x="271" y="411" type="line"/>
      <point x="353" y="385"/>
      <point x="427" y="311"/>
    </contour>
  </outline>
</glyph>
<glyph name="divide" format="1">
  <advance width="471"/>
  <unicode hex="00F7"/>
  <outline>
    <contour>
      <point x="279" y="522" type="curve" smooth="yes"/>
      <point x="279" y="497"/>
      <point x="261" y="479"/>
      <point x="236" y="479" type="curve" smooth="yes"/>
      <point x="211" y="479"/>
      <point x="193" y="497"/>
      <point x="193" y="522" type="curve" smooth="yes"/>
      <point x="193" y="547"/>
      <point x="211" y="564"/>
      <point x="236" y="564" type="curve" smooth="yes"/>
      <point x="261" y="564"/>
      <point x="279" y="547"/>
    </contour>
    <contour>
      <point x="436" y="329" type="line"/>
      <point x="35" y="329" type="line"/>
      <point x="35" y="381" type="line"/>
      <point x="436" y="381" type="line"/>
    </contour>
    <contour>
      <point x="279" y="188" type="curve" smooth="yes"/>
      <point x="279" y="163"/>
      <point x="261" y="146"/>
      <point x="236" y="146" type="curve" smooth="yes"/>
      <point x="211" y="146"/>
      <point x="193" y="163"/>
      <point x="193" y="188" type="curve" smooth="yes"/>
      <point x="193" y="213"/>
      <point x="211" y="231"/>
      <point x="236" y="231" type="curve" smooth="yes"/>
      <point x="261" y="231"/>
      <point x="279" y="213"/>
    </contour>
  </outline>
</glyph>
<glyph name="Lslash" format="1">
  <advance width="416"/>
  <unicode hex="0141"/>
  <outline>
    <contour>
      <point x="407" y="0" type="line"/>
      <point x="90" y="0" type="line"/>
      <point x="90" y="328" type="line"/>
      <point x="22" y="287" type="line"/>
      <point x="22" y="343" type="line"/>
      <point x="90" y="384" type="line"/>
      <point x="90" y="720" type="line"/>
      <point x="153" y="720" type="line"/>
      <point x="153" y="418" type="line"/>
      <point x="267" y="485" type="line"/>
      <point x="267" y="429" type="line"/>
      <point x="153" y="362" type="line"/>
      <point x="153" y="51" type="line"/>
      <point x="407" y="51" type="line"/>
    </contour>
  </outline>
</glyph>
<glyph name="ring" format="1">
  <advance width="392"/>
  <unicode hex="02DA"/>
  <outline>
    <contour>
      <point x="269" y="641" type="curve" smooth="yes"/>
      <point x="269" y="602"/>
      <point x="237" y="571"/>
      <point x="196" y="571" type="curve" smooth="yes"/>
      <point x="154" y="571"/>
      <point x="123" y="602"/>
      <point x="123" y="641" type="curve" smooth="yes"/>
      <point x="123" y="681"/>
      <point x="154" y="712"/>
      <point x="196" y="712" type="curve" smooth="yes"/>
      <point x="237" y="712"/>
      <point x="269" y="681"/>
    </contour>
    <contour>
      <point x="239" y="642" type="curve" smooth="yes"/>
      <point x="239" y="667"/>
      <point x="221" y="687"/>
      <point x="196" y="687" type="curve" smooth="yes"/>
      <point x="171" y="687"/>
      <point x="153" y="667"/>
      <point x="153" y="642" type="curve" smooth="yes"/>
      <point x="153" y="617"/>
      <point x="171" y="595"/>
      <point x="196" y="595" type="curve" smooth="yes"/>
      <point x="221" y="595"/>
      <point x="239" y="617"/>
    </contour>
  </outline>
</glyph>
<glyph name="ogonek" format="1">
  <advance width="392"/>
  <unicode hex="02DB"/>
  <outline>
    <contour>
      <point x="291" y="-127" type="line"/>
      <point x="259" y="-145"/>
      <point x="227" y="-156"/>
      <point x="194" y="-156" type="curve" smooth="yes"/>
      <point x="148" y="-156"/>
      <point x="117" y="-133"/>
      <point x="117" y="-94" type="curve" smooth="yes"/>
      <point x="117" y="-58"/>
      <point x="148" y="-25"/>
      <point x="188" y="0" type="curve"/>
      <point x="220" y="0" type="line"/>
      <point x="183" y="-28"/>
      <point x="163" y="-58"/>
      <point x="163" y="-86" type="curve" smooth="yes"/>
      <point x="163" y="-109"/>
      <point x="180" y="-125"/>
      <point x="205" y="-125" type="curve" smooth="yes"/>
      <point x="232" y="-125"/>
      <point x="254" y="-118"/>
      <point x="282" y="-107" type="curve"/>
    </contour>
  </outline>
</glyph>
<glyph name="endash" format="1">
  <advance width="394"/>
  <unicode hex="2013"/>
  <outline>
    <contour>
      <point x="365" y="255" type="line"/>
      <point x="30" y="255" type="line"/>
      <point x="30" y="306" type="line"/>
      <point x="365" y="306" type="line"/>
    </contour>
  </outline>
</glyph>
<glyph name="quotesinglbase" format="1">
  <advance width="156"/>
  <unicode hex="201A"/>
  <outline>
    <contour>
      <point x="120" y="91" type="line"/>
      <point x="52" y="-109" type="line"/>
      <point x="25" y="-109" type="line"/>
      <point x="56" y="91" type="line"/>
    </contour>
  </outline>
</glyph>
<glyph name="quotedblleft" format="1">
  <advance width="280"/>
  <unicode hex="201C"/>
  <outline>
    <contour>
      <point x="246" y="520" type="line"/>
      <point x="220" y="520" type="line"/>
      <point x="152" y="720" type="line"/>
      <point x="215" y="720" type="line"/>
    </contour>
    <contour>
      <point x="121" y="520" type="line"/>
      <point x="94" y="520" type="line"/>
      <point x="27" y="720" type="line"/>
      <point x="90" y="720" type="line"/>
    </contour>
  </outline>
</glyph>
<glyph name="quotedblbase" format="1">
  <advance width="280"/>
  <unicode hex="201E"/>
  <outline>
    <contour>
      <point x="244" y="91" type="line"/>
      <point x="177" y="-109" type="line"/>
      <point x="150" y="-109" type="line"/>
      <point x="182" y="91" type="line"/>
    </contour>
    <contour>
      <point x="119" y="91" type="line"/>
      <point x="52" y="-109" type="line"/>
      <point x="25" y="-109" type="line"/>
      <point x="56" y="91" type="line"/>
    </contour>
  </outline>
</glyph>
<glyph name="ellipsis" format="1">
  <advance width="488"/>
  <unicode hex="2026"/>
  <outline>
    <contour>
      <point x="452" y="34" type="curve" smooth="yes"/>
      <point x="452" y="10"/>
      <point x="435" y="-7"/>
      <point x="411" y="-7" type="curve" smooth="yes"/>
      <point x="386" y="-7"/>
      <point x="369" y="10"/>
      <point x="369" y="34" type="curve" smooth="yes"/>
      <point x="369" y="58"/>
      <point x="386" y="76"/>
      <point x="411" y="76" type="curve" smooth="yes"/>
      <point x="435" y="76"/>
      <point x="452" y="58"/>
    </contour>
    <contour>
      <point x="285" y="34" type="curve" smooth="yes"/>
      <point x="285" y="10"/>
      <point x="268" y="-7"/>
      <point x="244" y="-7" type="curve" smooth="yes"/>
      <point x="220" y="-7"/>
      <point x="203" y="10"/>
      <point x="203" y="34" type="curve" smooth="yes"/>
      <point x="203" y="58"/>
      <point x="220" y="76"/>
      <point x="244" y="76" type="curve" smooth="yes"/>
      <point x="268" y="76"/>
      <point x="285" y="58"/>
    </contour>
    <contour>
      <point x="118" y="34" type="curve" smooth="yes"/>
      <point x="118" y="10"/>
      <point x="101" y="-7"/>
      <point x="77" y="-7" type="curve" smooth="yes"/>
      <point x="53" y="-7"/>
      <point x="36" y="10"/>
      <point x="36" y="34" type="curve" smooth="yes"/>
      <point x="36" y="58"/>
      <point x="53" y="76"/>
      <point x="77" y="76" type="curve" smooth="yes"/>
      <point x="101" y="76"/>
      <point x="118" y="58"/>
    </contour>
  </outline>
</glyph>
<glyph name="guilsinglleft" format="1">
  <advance width="208"/>
  <unicode hex="2039"/>
  <outline>
    <contour>
      <point x="179" y="78" type="line"/>
      <point x="142" y="78" type="line"/>
      <point x="18" y="258" type="line"/>
      <point x="142" y="439" type="line"/>
      <point x="179" y="439" type="line"/>
      <point x="85" y="258" type="line"/>
    </contour>
  </outline>
</glyph>
<glyph name="fraction" format="1">
  <advance width="293"/>
  <unicode hex="2044"/>
  <outline>
    <contour>
      <point x="324" y="735" type="line"/>
      <point x="22" y="-15" type="line"/>
      <point x="-30" y="-15" type="line"/>
      <point x="272" y="735" type="line"/>
    </contour>
  </outline>
</glyph>
<glyph name="Euro" format="1">
  <advance width="452"/>
  <unicode hex="20AC"/>
  <outline>
    <contour>
      <point x="424" y="189" type="line"/>
      <point x="398" y="70"/>
      <point x="349" y="-12"/>
      <point x="238" y="-12" type="curve" smooth="yes"/>
      <point x="114" y="-12"/>
      <point x="41" y="113"/>
      <point x="41" y="322" type="curve" smooth="yes"/>
      <point x="41" y="397" type="line" smooth="yes"/>
      <point x="41" y="606"/>
      <point x="115" y="732"/>
      <point x="237" y="732" type="curve" smooth="yes"/>
      <point x="341" y="732"/>
      <point x="394" y="659"/>
      <point x="420" y="545" type="curve"/>
      <point x="369" y="522" type="line"/>
      <point x="347" y="622"/>
      <point x="310" y="684"/>
      <point x="238" y="684" type="curve" smooth="yes"/>
      <point x="156" y="684"/>
      <point x="110" y="587"/>
      <point x="102" y="449" type="curve"/>
      <point x="285" y="449" type="line"/>
      <point x="285" y="408" type="line"/>
      <point x="101" y="408" type="line"/>
      <point x="101" y="302" type="line"/>
      <point x="285" y="302" type="line"/>
      <point x="285" y="261" type="line"/>
      <point x="103" y="261" type="line"/>
      <point x="112" y="129"/>
      <point x="158" y="36"/>
      <point x="242" y="36" type="curve" smooth="yes"/>
      <point x="314" y="36"/>
      <point x="350" y="98"/>
      <point x="375" y="210" type="curve"/>
    </contour>
  </outline>
</glyph>
<glyph name="uni2117" format="1">
  <advance width="658"/>
  <unicode hex="2117"/>
  <outline>
    <contour>
      <point x="623" y="360" type="curve" smooth="yes"/>
      <point x="623" y="146"/>
      <point x="501" y="-12"/>
      <point x="329" y="-12" type="curve" smooth="yes"/>
      <point x="158" y="-12"/>
      <point x="36" y="146"/>
      <point x="36" y="360" type="curve" smooth="yes"/>
      <point x="36" y="574"/>
      <point x="158" y="732"/>
      <point x="330" y="732" type="curve" smooth="yes"/>
      <point x="501" y="732"/>
      <point x="623" y="574"/>
    </contour>
    <contour>
      <point x="593" y="360" type="curve" smooth="yes"/>
      <point x="593" y="558"/>
      <point x="487" y="706"/>
      <point x="329" y="706" type="curve" smooth="yes"/>
      <point x="171" y="706"/>
      <point x="66" y="559"/>
      <point x="66" y="360" type="curve" smooth="yes"/>
      <point x="66" y="162"/>
      <point x="171" y="14"/>
      <point x="330" y="14" type="curve" smooth="yes"/>
      <point x="487" y="14"/>
      <point x="593" y="161"/>
    </contour>
    <contour>
      <point x="459" y="444" type="curve" smooth="yes"/>
      <point x="459" y="365"/>
      <point x="415" y="321"/>
      <point x="333" y="321" type="curve" smooth="yes"/>
      <point x="296" y="321" type="line"/>
      <point x="296" y="159" type="line"/>
      <point x="249" y="159" type="line"/>
      <point x="249" y="565" type="line"/>
      <point x="334" y="565" type="line" smooth="yes"/>
      <point x="414" y="565"/>
      <point x="459" y="522"/>
    </contour>
    <contour>
      <point x="411" y="443" type="curve" smooth="yes"/>
      <point x="411" y="495"/>
      <point x="385" y="525"/>
      <point x="335" y="525" type="curve" smooth="yes"/>
      <point x="296" y="525" type="line"/>
      <point x="296" y="360" type="line"/>
      <point x="337" y="360" type="line" smooth="yes"/>
      <point x="386" y="360"/>
      <point x="411" y="389"/>
    </contour>
  </outline>
</glyph>
<glyph name="minus" format="1">
  <advance width="471"/>
  <unicode hex="2212"/>
  <outline>
    <contour>
      <point x="436" y="328" type="line"/>
      <point x="35" y="328" type="line"/>
      <point x="35" y="381" type="line"/>
      <point x="436" y="381" type="line"/>
    </contour>
  </outline>
</glyph>
<glyph name="radical" format="1">
  <advance width="449"/>
  <unicode hex="221A"/>
  <outline>
    <contour>
      <point x="425" y="720" type="line"/>
      <point x="220" y="-3" type="line"/>
      <point x="153" y="-3" type="line"/>
      <point x="31" y="340" type="line"/>
      <point x="94" y="340" type="line"/>
      <point x="185" y="64" type="line"/>
      <point x="361" y="720" type="line"/>
    </contour>
  </outline>
</glyph>
<glyph name="apple" format="1">
  <advance width="500"/>
  <unicode hex="F8FF"/>
  <outline>
    <contour>
      <point x="458" y="171" type="line"/>
      <point x="438" y="110" type="line"/>
      <point x="261" y="192" type="line"/>
      <point x="283" y="0" type="line"/>
      <point x="217" y="0" type="line"/>
      <point x="239" y="192" type="line"/>
      <point x="62" y="110" type="line"/>
      <point x="42" y="171" type="line"/>
      <point x="229" y="212" type="line"/>
      <point x="96" y="358" type="line"/>
      <point x="96" y="362" type="line"/>
      <point x="229" y="508" type="line"/>
      <point x="42" y="549" type="line"/>
      <point x="62" y="610" type="line"/>
      <point x="239" y="528" type="line"/>
      <point x="217" y="720" type="line"/>
      <point x="283" y="720" type="line"/>
      <point x="261" y="528" type="line"/>
      <point x="438" y="610" type="line"/>
      <point x="458" y="549" type="line"/>
      <point x="271" y="508" type="line"/>
      <point x="404" y="362" type="line"/>
      <point x="404" y="358" type="line"/>
      <point x="271" y="212" type="line"/>
    </contour>
    <contour>
      <point x="342" y="360" type="line"/>
      <point x="250" y="500" type="line"/>
      <point x="158" y="360" type="line"/>
      <point x="250" y="220" type="line"/>
    </contour>
  </outline>
</glyph>
<glyph name="registered.big" format="1">
  <advance width="658"/>
  <outline>
    <contour>
      <point x="623" y="360" type="curve" smooth="yes"/>
      <point x="623" y="146"/>
      <point x="501" y="-12"/>
      <point x="329" y="-12" type="curve" smooth="yes"/>
      <point x="158" y="-12"/>
      <point x="36" y="146"/>
      <point x="36" y="360" type="curve" smooth="yes"/>
      <point x="36" y="574"/>
      <point x="158" y="732"/>
      <point x="330" y="732" type="curve" smooth="yes"/>
      <point x="501" y="732"/>
      <point x="623" y="574"/>
    </contour>
    <contour>
      <point x="593" y="360" type="curve" smooth="yes"/>
      <point x="593" y="558"/>
      <point x="487" y="706"/>
      <point x="329" y="706" type="curve" smooth="yes"/>
      <point x="171" y="706"/>
      <point x="66" y="559"/>
      <point x="66" y="360" type="curve" smooth="yes"/>
      <point x="66" y="162"/>
      <point x="171" y="14"/>
      <point x="330" y="14" type="curve" smooth="yes"/>
      <point x="487" y="14"/>
      <point x="593" y="161"/>
    </contour>
    <contour>
      <point x="459" y="162" type="line"/>
      <point x="407" y="162" type="line"/>
      <point x="321" y="336" type="line"/>
      <point x="280" y="336" type="line"/>
      <point x="280" y="162" type="line"/>
      <point x="233" y="162" type="line"/>
      <point x="233" y="568" type="line"/>
      <point x="327" y="568" type="line" smooth="yes"/>
      <point x="399" y="568"/>
      <point x="448" y="530"/>
      <point x="448" y="454" type="curve" smooth="yes"/>
      <point x="448" y="390"/>
      <point x="415" y="356"/>
      <point x="368" y="344" type="curve"/>
    </contour>
    <contour>
      <point x="400" y="452" type="curve" smooth="yes"/>
      <point x="400" y="504"/>
      <point x="373" y="529"/>
      <point x="324" y="529" type="curve" smooth="yes"/>
      <point x="280" y="529" type="line"/>
      <point x="280" y="374" type="line"/>
      <point x="326" y="374" type="line" smooth="yes"/>
      <point x="374" y="374"/>
      <point x="400" y="397"/>
    </contour>
  </outline>
</glyph>
<glyph name="registered" format="1">
  <advance width="345"/>
  <outline>
    <contour>
      <point x="319" y="573" type="curve" smooth="yes"/>
      <point x="319" y="486"/>
      <point x="256" y="419"/>
      <point x="172" y="419" type="curve" smooth="yes"/>
      <point x="89" y="419"/>
      <point x="26" y="486"/>
      <point x="26" y="572" type="curve" smooth="yes"/>
      <point x="26" y="660"/>
      <point x="89" y="727"/>
      <point x="173" y="727" type="curve" smooth="yes"/>
      <point x="256" y="727"/>
      <point x="319" y="660"/>
    </contour>
    <contour>
      <point x="301" y="572" type="curve" smooth="yes"/>
      <point x="301" y="650"/>
      <point x="246" y="710"/>
      <point x="172" y="710" type="curve" smooth="yes"/>
      <point x="97" y="710"/>
      <point x="44" y="650"/>
      <point x="44" y="573" type="curve" smooth="yes"/>
      <point x="44" y="496"/>
      <point x="98" y="436"/>
      <point x="173" y="436" type="curve" smooth="yes"/>
      <point x="247" y="436"/>
      <point x="301" y="496"/>
    </contour>
    <contour>
      <point x="245" y="489" type="line"/>
      <point x="209" y="489" type="line"/>
      <point x="165" y="561" type="line"/>
      <point x="150" y="561" type="line"/>
      <point x="150" y="489" type="line"/>
      <point x="121" y="489" type="line"/>
      <point x="121" y="663" type="line"/>
      <point x="174" y="663" type="line" smooth="yes"/>
      <point x="210" y="663"/>
      <point x="234" y="646"/>
      <point x="234" y="613" type="curve" smooth="yes"/>
      <point x="234" y="587"/>
      <point x="220" y="571"/>
      <point x="198" y="564" type="curve"/>
    </contour>
    <contour>
      <point x="204" y="612" type="curve" smooth="yes"/>
      <point x="204" y="629"/>
      <point x="193" y="638"/>
      <point x="172" y="638" type="curve" smooth="yes"/>
      <point x="150" y="638" type="line"/>
      <point x="150" y="583" type="line"/>
      <point x="173" y="583" type="line" smooth="yes"/>
      <point x="193" y="583"/>
      <point x="204" y="594"/>
    </contour>
  </outline>
</glyph>
